<svg width="19" height="18" viewBox="0 0 19 18" fill="none" xmlns="http://www.w3.org/2000/svg">
<g id="Icon">
<path id="Vector" d="M16.1258 5.95547C16.0215 5.85047 15.8974 5.76721 15.7606 5.71048C15.6239 5.65376 15.4772 5.62471 15.3292 5.625H13.0792V5.0625C13.0792 4.01821 12.6644 3.01669 11.9259 2.27827C11.1875 1.53984 10.186 1.125 9.14171 1.125C8.09742 1.125 7.0959 1.53984 6.35748 2.27827C5.61905 3.01669 5.20421 4.01821 5.20421 5.0625V5.625H2.95421C2.65584 5.625 2.36969 5.74353 2.15871 5.9545C1.94773 6.16548 1.82921 6.45163 1.82921 6.75V14.3438C1.82921 15.7148 2.98936 16.875 4.36046 16.875H13.923C14.5862 16.8752 15.2231 16.6159 15.6976 16.1525C15.9364 15.9247 16.1266 15.6509 16.2566 15.3476C16.3866 15.0442 16.4539 14.7177 16.4542 14.3877V6.75C16.4547 6.60244 16.4259 6.45626 16.3695 6.31989C16.3132 6.18352 16.2303 6.05966 16.1258 5.95547ZM11.3917 11.8125H9.70421V13.5C9.70421 13.6492 9.64495 13.7923 9.53946 13.8977C9.43397 14.0032 9.29089 14.0625 9.14171 14.0625C8.99252 14.0625 8.84945 14.0032 8.74396 13.8977C8.63847 13.7923 8.57921 13.6492 8.57921 13.5V11.8125H6.89171C6.74252 11.8125 6.59945 11.7532 6.49396 11.6477C6.38847 11.5423 6.32921 11.3992 6.32921 11.25C6.32921 11.1008 6.38847 10.9577 6.49396 10.8523C6.59945 10.7468 6.74252 10.6875 6.89171 10.6875H8.57921V9C8.57921 8.85082 8.63847 8.70774 8.74396 8.60225C8.84945 8.49676 8.99252 8.4375 9.14171 8.4375C9.29089 8.4375 9.43397 8.49676 9.53946 8.60225C9.64495 8.70774 9.70421 8.85082 9.70421 9V10.6875H11.3917C11.5409 10.6875 11.684 10.7468 11.7895 10.8523C11.8949 10.9577 11.9542 11.1008 11.9542 11.25C11.9542 11.3992 11.8949 11.5423 11.7895 11.6477C11.684 11.7532 11.5409 11.8125 11.3917 11.8125ZM11.9542 5.625H6.32921V5.0625C6.32921 4.31658 6.62552 3.60121 7.15297 3.07376C7.68042 2.54632 8.39579 2.25 9.14171 2.25C9.88763 2.25 10.603 2.54632 11.1304 3.07376C11.6579 3.60121 11.9542 4.31658 11.9542 5.0625V5.625Z" fill="white"/>
</g>
</svg>
