<svg width="24" height="25" viewBox="0 0 24 25" fill="none" xmlns="http://www.w3.org/2000/svg">
    <g id="Icon">
        <path id="Vector"
            d="M2.6666 21.2806H3.1666C3.21081 21.2806 3.2532 21.2618 3.28446 21.2283C3.31571 21.1948 3.33327 21.1494 3.33327 21.102V13.4909C3.33289 13.4625 3.33885 13.4344 3.35064 13.4089C3.36243 13.3835 3.37972 13.3614 3.40107 13.3445C3.42243 13.3277 3.44722 13.3165 3.4734 13.312C3.49959 13.3075 3.5264 13.3097 3.55161 13.3185C3.93396 13.4473 4.33101 13.5191 4.73162 13.5319C4.78079 13.5319 4.82746 13.5342 4.87329 13.5342C5.64383 13.5361 6.40198 13.3265 7.0754 12.9252C7.12638 12.8949 7.18374 12.8789 7.24207 12.8789C7.3004 12.8789 7.35776 12.8949 7.40874 12.9252C8.08201 13.3265 8.84002 13.5361 9.61043 13.5342C10.3765 13.5353 11.1298 13.3232 11.7963 12.9185C11.8477 12.8874 11.9058 12.871 11.9648 12.871C12.0239 12.871 12.082 12.8874 12.1334 12.9185C12.8099 13.3247 13.5729 13.5369 14.3484 13.5346C15.1196 13.5352 15.8776 13.3197 16.5472 12.9096C16.599 12.878 16.6576 12.8614 16.7172 12.8614C16.7768 12.8614 16.8354 12.878 16.8872 12.9096C17.5567 13.3197 18.3147 13.5352 19.086 13.5346C19.1314 13.5346 19.1772 13.5346 19.2264 13.5324H19.2289C19.6436 13.519 20.0543 13.4425 20.4489 13.3052C20.4739 13.2965 20.5004 13.2943 20.5263 13.2987C20.5523 13.3031 20.5769 13.3141 20.5981 13.3306C20.6194 13.3471 20.6366 13.3688 20.6486 13.3939C20.6605 13.4189 20.6668 13.4467 20.6668 13.4748V21.102C20.6668 21.1494 20.6844 21.1948 20.7156 21.2283C20.7469 21.2618 20.7893 21.2806 20.8335 21.2806H21.3126C21.6727 21.2806 21.9835 21.577 21.9993 21.9627C22.0034 22.0591 21.9892 22.1554 21.9575 22.2458C21.9259 22.3361 21.8775 22.4186 21.8153 22.4884C21.7531 22.5582 21.6783 22.6137 21.5955 22.6516C21.5127 22.6896 21.4235 22.7091 21.3335 22.7092H2.68743C2.32743 22.7092 2.01659 22.4127 2.00076 22.027C1.9967 21.9306 2.01092 21.8344 2.04255 21.744C2.07419 21.6537 2.12257 21.5711 2.1848 21.5014C2.24703 21.4316 2.3218 21.3761 2.40461 21.3381C2.48741 21.3002 2.57654 21.2806 2.6666 21.2806ZM13.3334 18.2449C13.3334 18.2922 13.3509 18.3377 13.3822 18.3712C13.4135 18.4046 13.4559 18.4235 13.5001 18.4235H17.1668C17.211 18.4235 17.2534 18.4046 17.2846 18.3712C17.3159 18.3377 17.3334 18.2922 17.3334 18.2449V15.3877C17.3334 15.2457 17.2808 15.1094 17.187 15.0089C17.0932 14.9085 16.966 14.852 16.8334 14.852H13.8334C13.7008 14.852 13.5736 14.9085 13.4798 15.0089C13.3861 15.1094 13.3334 15.2457 13.3334 15.3877V18.2449ZM6.83331 21.2806H9.83335C9.87755 21.2806 9.91994 21.2618 9.9512 21.2283C9.98246 21.1948 10 21.1494 10 21.102V15.3877C10 15.2457 9.94734 15.1094 9.85357 15.0089C9.7598 14.9085 9.63262 14.852 9.50001 14.852H7.16665C7.03404 14.852 6.90686 14.9085 6.81309 15.0089C6.71932 15.1094 6.66664 15.2457 6.66664 15.3877V21.102C6.66664 21.1494 6.6842 21.1948 6.71546 21.2283C6.74672 21.2618 6.78911 21.2806 6.83331 21.2806ZM2.14284 8.88238L3.9312 4.48551C4.39953 3.40649 5.46913 2.70917 6.65623 2.70917H17.3459C18.533 2.70917 19.6026 3.40649 20.071 4.48551L21.8593 8.88238C22.2343 9.7489 21.7389 10.6386 21.7385 10.6391L21.7268 10.6592C21.7064 10.694 21.6702 10.7485 21.6481 10.7833C21.646 10.786 21.6443 10.7891 21.6422 10.7922L21.4339 11.0623C21.4261 11.0725 21.4178 11.0822 21.4089 11.0913L21.2006 11.3069L21.1831 11.323C21.0607 11.4354 20.9298 11.5366 20.7918 11.6257V11.6279C20.3383 11.9222 19.8217 12.0863 19.2918 12.1043H19.1889C18.3871 12.1059 17.6145 11.7819 17.0268 11.1976L17.013 11.1837C16.9516 11.1218 16.8705 11.0872 16.7861 11.0872C16.7018 11.0872 16.6206 11.1218 16.5593 11.1837L16.5455 11.1976C15.9515 11.7809 15.175 12.1045 14.3692 12.1045C13.5635 12.1045 12.787 11.7809 12.193 11.1976C12.1313 11.1364 12.0505 11.1025 11.9665 11.1025C11.8825 11.1025 11.8017 11.1364 11.74 11.1976C11.1478 11.779 10.3741 12.1024 9.57083 12.1043C8.76752 12.1062 7.99254 11.7865 7.3979 11.2078C7.3372 11.1476 7.25751 11.1141 7.17478 11.1141C7.09204 11.1141 7.01235 11.1476 6.95165 11.2078C6.35638 11.79 5.57801 12.1102 4.77204 12.1043H4.66829C4.15168 12.0836 3.64902 11.9189 3.20994 11.6266C3.17035 11.6011 3.13244 11.5743 3.0941 11.5476C2.79796 11.3337 2.54023 11.0643 2.33326 10.7525L2.26076 10.6351C2.25354 10.6232 2.24687 10.6107 2.24076 10.5976C2.17159 10.4467 1.80075 9.67077 2.14284 8.88238Z"
            fill="black" />
    </g>
</svg>
    