<svg width="56" height="56" viewBox="0 0 56 56" fill="none" xmlns="http://www.w3.org/2000/svg">
<rect x="8" y="8" width="40" height="40" rx="10" fill="#E5252C"/>
<path d="M23.5 28C23.5 27.8011 23.579 27.6103 23.7197 27.4697C23.8603 27.329 24.0511 27.25 24.25 27.25H31V22.375C31 20.875 29.4161 19.75 28 19.75H20.875C20.179 19.7507 19.5118 20.0275 19.0197 20.5197C18.5275 21.0118 18.2507 21.679 18.25 22.375V33.625C18.2507 34.321 18.5275 34.9882 19.0197 35.4803C19.5118 35.9725 20.179 36.2493 20.875 36.25H28.375C29.071 36.2493 29.7382 35.9725 30.2303 35.4803C30.7225 34.9882 30.9993 34.321 31 33.625V28.75H24.25C24.0511 28.75 23.8603 28.671 23.7197 28.5303C23.579 28.3897 23.5 28.1989 23.5 28ZM37.5302 27.4698L33.7802 23.7198C33.6384 23.5851 33.4495 23.5111 33.254 23.5136C33.0584 23.5161 32.8715 23.5949 32.7332 23.7332C32.5949 23.8715 32.5161 24.0584 32.5136 24.254C32.5111 24.4495 32.5851 24.6384 32.7198 24.7802L35.1892 27.25H31V28.75H35.1892L32.7198 31.2198C32.6473 31.2888 32.5892 31.3716 32.5492 31.4633C32.5091 31.555 32.4878 31.6539 32.4865 31.754C32.4852 31.8541 32.504 31.9534 32.5417 32.0461C32.5794 32.1389 32.6353 32.2231 32.7061 32.2939C32.7769 32.3647 32.8611 32.4206 32.9539 32.4583C33.0466 32.496 33.1459 32.5148 33.246 32.5135C33.3461 32.5122 33.445 32.4909 33.5367 32.4508C33.6284 32.4108 33.7112 32.3527 33.7802 32.2802L37.5302 28.5302C37.6707 28.3895 37.7497 28.1988 37.7497 28C37.7497 27.8012 37.6707 27.6105 37.5302 27.4698Z" fill="white"/>
</svg>
