<svg width="28" height="28" viewBox="0 0 28 28" fill="none" xmlns="http://www.w3.org/2000/svg">
<rect x="0.5" y="0.5" width="27" height="27" rx="7.5" stroke="#EA5959" stroke-opacity="0.4"/>
<path d="M11.1195 19.3305L5.355 13.5695C5.27429 13.4859 5.17773 13.4193 5.07098 13.3734C4.96423 13.3276 4.84941 13.3034 4.73323 13.3024C4.61705 13.3014 4.50183 13.3235 4.39429 13.3675C4.28676 13.4115 4.18906 13.4765 4.10691 13.5587C4.02475 13.6408 3.95978 13.7385 3.91578 13.846C3.87179 13.9536 3.84965 14.0688 3.85066 14.185C3.85167 14.3012 3.8758 14.416 3.92166 14.5227C3.96752 14.6295 4.03418 14.726 4.11775 14.8068L11.1178 21.8068L25.1178 7.80676C25.2771 7.64173 25.3653 7.4207 25.3633 7.19128C25.3613 6.96186 25.2693 6.7424 25.1071 6.58016C24.9449 6.41793 24.7254 6.32591 24.496 6.32392C24.2666 6.32192 24.0455 6.41012 23.8805 6.56951L11.1178 19.3305H11.1195Z" fill="#EA5959" fill-opacity="0.4"/>
</svg>
